<svg data-name="Layer 1" xmlns="http://www.w3.org/2000/svg" viewBox="0 0 272.67 119.38" style="color: whitesmoke;fill: whitesmoke; width: 85%;margin: auto;display: block;">
	<defs>
		<style>
			.cls-1 {
				fill: none;
				stroke: #EEE;
				stroke-miterlimit: 10;
			}
			.cls-2 {
				fill: #AAA;
			}
			.cls-3 {
				font-size:12px;
			}
			.cls-3,.cls-8 {
				font-family: sans-serif;
			}
			.cls-4,.cls-5,.cls-6 {
				text-decoration:underline;
			}
			.cls-5 {
				letter-spacing:-0.01em;
			}
			.cls-6 {
				letter-spacing:-0.04em;
			}
			.cls-7 {
				letter-spacing:-0.03em;
			}
			.cls-8 {
				font-size:11.16px;
			}
			.cls-9 {
				letter-spacing:-0.03em;
			}
		</style>
	</defs>
	<g id="Winding" class="hidden"><line class="cls-1" x1="149.31" y1="47.7" x2="166.98" y2="12"></line><line class="cls-1" x1="208.45" y1="21.01" x2="166.98" y2="12"></line><line class="cls-1" x1="204.48" y1="81.23" x2="208.45" y2="21.01"></line><line class="cls-1" x1="149.31" y1="47.7" x2="204.48" y2="81.23"></line><circle class="cls-2" cx="204.48" cy="81.23" r="1.63"></circle><circle class="cls-2" cx="149.31" cy="47.7" r="1.63"></circle><circle class="cls-2" cx="166.98" cy="12" r="1.63"></circle><circle class="cls-2" cx="208.45" cy="21.01" r="1.63"></circle><text class="cls-3" transform="translate(206.12 79.6)">0</text><text class="cls-3" transform="translate(210.08 19.38)">1</text><text class="cls-3" transform="translate(168.61 10.36)">2</text><text class="cls-3" transform="translate(140.96 46.06)">3</text><text class="cls-3" transform="translate(122.55 100.36)"><tspan class="cls-4">Clockwise</tspan><tspan x="57.82" y="0" xml:space="preserve"> vs. </tspan><tspan class="cls-4" x="80.83" y="0">Counter-Cw</tspan><tspan x="0" y="14.4" xml:space="preserve">  </tspan><tspan class="cls-7" x="6.75" y="14.4">3</tspan><tspan x="13.98" y="14.4" xml:space="preserve">, 2, 1, 0           0, 1, 2, 3</tspan></text></g>
	<g id="Vector2" class="hidden"><line class="cls-1" x1="29.47" y1="61.32" x2="2.15" y2="14"></line><polygon points="5.18 13.26 0 10.27 0 16.25 5.18 13.26"></polygon><line class="cls-1" x1="29.47" y1="61.32" x2="56.79" y2="108.64"></line><polygon points="53.77 109.37 58.95 112.36 58.95 106.38 53.77 109.37"></polygon><text class="cls-8" transform="translate(0 10.27)">(<tspan class="cls-9" x="4.04" y="0">-</tspan><tspan x="8.8" y="0">2, 4)</tspan></text><text class="cls-8" transform="translate(58.95 112.36)">(2, -4)</text></g>
	<g id="Vector1" class="hidden"><line class="cls-1" x1="29.47" y1="61.32" x2="76.79" y2="34"></line><polygon points="77.53 37.02 80.52 31.84 74.54 31.84 77.53 37.02"></polygon><text class="cls-8" transform="translate(80.52 31.84)">(<tspan class="cls-9" x="4.04" y="0">4</tspan><tspan x="10.82" y="0">, 2)</tspan></text><circle class="cls-2" cx="29.47" cy="61.32" r="1.63"></circle></g>
</svg>