<svg xmlns="http://www.w3.org/2000/svg" viewBox="0 0 214.72 64.21">
	<defs>
		<style>
			.cls-1,
			.cls-3 {
				fill: var(--text-color);
			}

			.cls-1,
			.cls-2,
			.cls-4,
			.cls-5 {
				stroke: var(--text-color);
			}

			.cls-1,
			.cls-2,
			.cls-4,
			.cls-5,
			.cls-6,
			.cls-8,
			.cls-9 {
				stroke-miterlimit: 10;
			}

			.cls-2,
			.cls-4,
			.cls-5,
			.cls-6,
			.cls-8,
			.cls-9 {
				fill: none;
			}

			.cls-4 {
				stroke-dasharray: 12;
			}

			.cls-5 {
				stroke-dasharray: 3 1;
			}

			.cls-6,
			.cls-8,
			.cls-9 {
				stroke: #838bc5;
			}

			.cls-7 {
				fill: #838bc5;
			}

			.cls-8 {
				stroke-dasharray: 20 0 62 27;
			}

			.cls-9 {
				stroke-dasharray: 20 0 79 52;
			}
		</style>
	</defs>
	<g id="Layer_2" data-name="Layer 2">
		<g id="Layer_1-2" data-name="Layer 1">
			<circle class="cls-1" cx="3" cy="40.8" r="2.5"></circle>
			<circle class="cls-1" cx="52.28" cy="59.57" r="2.5"></circle>
			<circle class="cls-1" cx="60.28" cy="18.74" r="2.5"></circle>
			<line class="cls-2" x1="60.28" y1="18.74" x2="52.28" y2="59.57"></line>
			<circle class="cls-1" cx="104.18" cy="61.21" r="2.5"></circle>
			<circle class="cls-1" cx="112.18" cy="20.38" r="2.5"></circle>
			<line class="cls-2" x1="112.18" y1="20.38" x2="104.18" y2="61.21"></line>
			<circle class="cls-1" cx="138.39" cy="34.85" r="2.5"></circle>
			<line class="cls-2" x1="112.18" y1="20.38" x2="138.39" y2="34.85"></line>
			<line class="cls-2" x1="104.18" y1="61.21" x2="138.39" y2="34.85"></line>
			<circle class="cls-1" cx="177.51" cy="61.05" r="2.5"></circle>
			<circle class="cls-1" cx="185.51" cy="20.21" r="2.5"></circle>
			<line class="cls-2" x1="185.51" y1="20.21" x2="177.51" y2="61.05"></line>
			<circle class="cls-1" cx="211.72" cy="34.69" r="2.5"></circle>
			<line class="cls-2" x1="185.51" y1="20.21" x2="211.72" y2="34.69"></line>
			<line class="cls-2" x1="177.51" y1="61.05" x2="211.72" y2="34.69"></line>
			<circle class="cls-3" cx="198" cy="37.35" r="1.5"></circle>
			<circle class="cls-4" cx="198" cy="37.35" r="1.5"></circle>
			<line class="cls-5" x1="185.51" y1="20.21" x2="198" y2="37.35"></line>
			<line class="cls-5" x1="177.51" y1="61.05" x2="198" y2="37.35"></line>
			<line class="cls-5" x1="211.72" y1="34.69" x2="198" y2="37.35"></line>
			<line class="cls-6" x1="39.53" y1="40.77" x2="19.17" y2="40.63"></line>
			<polygon class="cls-7" points="38.67 37.77 43.83 40.8 38.63 43.75 38.67 37.77"></polygon>
			<line class="cls-6" x1="90.26" y1="48.68" x2="69.89" y2="48.55"></line>
			<polygon class="cls-7" points="89.4 45.69 94.56 48.71 89.36 51.67 89.4 45.69"></polygon>
			<line class="cls-6" x1="168.7" y1="41.21" x2="148.33" y2="41.08"></line>
			<polygon class="cls-7" points="167.84 38.22 173 41.24 167.8 44.2 167.84 38.22"></polygon>
			<line class="cls-6" x1="74.25" y1="41" x2="94.61" y2="41.14"></line>
			<polygon class="cls-7" points="75.11 44 69.94 40.97 75.15 38.02 75.11 44"></polygon>
			<line class="cls-6" x1="152.64" y1="49.11" x2="173" y2="49.24"></line>
			<polygon class="cls-7" points="153.5 52.1 148.34 49.08 153.54 46.12 153.5 52.1"></polygon>
			<path class="cls-8"
				d="M48,29l-1.57-2c-.81-1.17-4.41-6.62-3-13.26C45.14,5.91,53.06.28,61.14.69c9.75.49,16.88,9.63,16.66,18a16.35,16.35,0,0,1-4.74,10.7C67.73,34.72,58.87,36,50.64,32.35">
			</path>
			<polygon class="cls-7" points="49.75 26.44 50.64 32.35 45.07 30.16 49.75 26.44"></polygon>
			<path class="cls-9"
				d="M99.51,31.07a12.3,12.3,0,0,1-1.62-1.55c-4.36-5.07-2.62-12.11-2.33-13.25,2.43-9.8,13.58-13.84,15-14.33,13.1-4.54,30.1,2,36.91,15,.77,1.46,6.43,12.26,1.95,19-5.4,8.06-24.15,8.17-46.11-2.8">
			</path>
			<polygon class="cls-7" points="100.3 27.93 103.31 33.1 97.32 33.12 100.3 27.93"></polygon>
		</g>
	</g>
</svg>