<svg class="svg-img" xmlns="http://www.w3.org/2000/svg" viewBox="0 0 364.19 219.82">
	<defs>
		<style>
			.cls-1 {
				fill-opacity: 0;
			}

			.cls-1,
			.cls-2,
			.cls-5 {
				stroke: var(--text-color);
				stroke-miterlimit: 10;
				stroke-width: 0.5px;
			}

			.cls-2 {
				fill: var(--text-color);
			}

			.cls-3,
			.cls-4,
			.cls-6 {
				isolation: isolate;
			}

			.cls-4,
			.cls-6 {
				font-size: 14px;
				font-family: MyriadPro-Regular,
					Myriad Pro;
			}

			.cls-4,
			.cls-5,
			.cls-6 {
				fill: var(--text-color);
			}

			.cls-6 {
				letter-spacing: 0em;
			}

			.cls-7 {
				letter-spacing: 0em;
			}

			.cls-8 {
				letter-spacing: -0.01em;
			}
		</style>
	</defs>
	<g id="Layer_2" data-name="Layer 2">
		<g id="Layer_1-2" data-name="Layer 1">
			<path id="a7vJywMoip" class="cls-1"
				d="M250.74,108.59A108.34,108.34,0,1,1,142.4.25,108.39,108.39,0,0,1,250.74,108.59Z"></path>
			<path id="aojGvlR1o" class="cls-1" d="M364.19,149.47H0"></path>
			<path id="b13RQfe45N" class="cls-2" d="M145,216.93a2.64,2.64,0,1,1-2.64-2.64A2.64,2.64,0,0,1,145,216.93Z">
			</path>
			<path id="a3jwpJe9bd" class="cls-2" d="M145,149.47a2.64,2.64,0,1,1-2.64-2.64A2.64,2.64,0,0,1,145,149.47Z">
			</path>
			<g id="epQfmNKBq" class="cls-3">
				<text class="cls-4" transform="translate(147.06 211.83)">A</text>
			</g>
			<g id="g3JoLaPokP" class="cls-3">
				<text class="cls-4" transform="translate(147.06 143.56)">B</text>
			</g>
			<path id="bnhzn14P" class="cls-5" d="M145,157.62l-2.64-3.82-2.64,3.82h1.68v54.21h1.93V157.62Z"></path>
			<g id="a5EIiwgkw">
				<g id="aeJzDwQJn">
					<text class="cls-6 cls-9" transform="translate(269.3 140.4)">Plane B</text>
				</g>
			</g>
			<g id="lWR9tvULn">
				<g id="giK7zCiBZ">
					<text class="cls-4 cls-9" transform="translate(209.6 209.41)">Sphere A</text>
				</g>
			</g>
		</g>
	</g>
</svg>