<svg class="svg-img" xmlns="http://www.w3.org/2000/svg" viewBox="0 0 319.48 293.52"><defs><style>.cls-1{fill-opacity:0;}.cls-1,.cls-2,.cls-5{stroke:#fff;stroke-miterlimit:10;stroke-width:0.5px;}.cls-2{fill:#5a2d91;}.cls-3,.cls-4{isolation:isolate;}.cls-4{font-size:14px;font-family:MyriadPro-Regular, Myriad Pro;}.cls-4,.cls-5{fill:#fff;}.cls-6{letter-spacing:-0.01em;}.cls-7{letter-spacing:0em;}</style></defs><g id="Layer_2" data-name="Layer 2"><g id="Layer_1-2" data-name="Layer 1"><path id="circleB" class="cls-1" d="M216.92,108.58A108.34,108.34,0,1,1,108.58.25,108.38,108.38,0,0,1,216.92,108.58Z"></path><path id="pointA" class="cls-2" d="M201.59,169.27a2.64,2.64,0,1,1-2.64-2.64A2.64,2.64,0,0,1,201.59,169.27Z"></path><path id="bvujLY3Pv" class="cls-1" d="M319.23,184.93A108.34,108.34,0,1,1,210.89,76.59,108.4,108.4,0,0,1,319.23,184.93Z"></path><path id="b2sM6mmV3Y" class="cls-2" d="M138.53,105.94a2.64,2.64,0,1,1-2.64-2.64A2.64,2.64,0,0,1,138.53,105.94Z"></path><g id="g7IjQmpjFM"><g id="a5ffFLN0Lk" class="cls-3"><text class="cls-4" transform="translate(206.96 169.27)">A</text></g></g><g id="f5t39XVL9"><g id="a3HVPWIRk6" class="cls-3"><text class="cls-4" transform="translate(125.66 100.13)">B</text></g></g><path id="a6B9Ro3d2Q" class="cls-5" d="M145.73,112.32l-5.51-1.77,1.78,5.5,1.18-1.18,51.76,51.76,1.37-1.37L144.55,113.5Z"></path><g id="b34R6jrlf6"><g id="azoQGzEb0"><text class="cls-4 cls-9" transform="translate(254.28 162.37)">Sphere B</text></g></g><g id="c1Pseh1RfC"><g id="j1Q686eol"><text class="cls-4 cls-9" transform="translate(10.62 84.31)">Sphere A</text></g></g></g></g></svg>